<?xml version="1.0" encoding="utf-8"?>
<!-- Generator: Adobe Illustrator 23.0.1, SVG Export Plug-In . SVG Version: 6.00 Build 0)  -->
<svg version="1.1" id="Calque_1" xmlns="http://www.w3.org/2000/svg" xmlns:xlink="http://www.w3.org/1999/xlink" x="0px" y="0px"
	 viewBox="0 0 205.54 39" style="enable-background:new 0 0 205.54 39;" xml:space="preserve">
<style type="text/css">
	.st0{fill:#F4F4DF;}
</style>
<g>
	<g>
		<g>
			<polygon class="st0" points="100.96,15.18 99.54,15.18 96.52,26.6 92.59,26.6 90.27,16.47 87.93,26.6 84,26.6 80.97,15.18 
				79.54,15.18 79.54,12.48 85.71,12.48 85.71,15.18 84.04,15.18 85.94,23.77 88.51,12.48 91.98,12.48 94.54,23.77 96.44,15.18 
				94.81,15.18 94.81,12.48 100.95,12.48 100.96,15.18 			"/>
		</g>
		<g>
			<polygon class="st0" points="111.5,23.89 111.5,26.59 105.09,26.59 105.09,23.89 106.66,23.89 106.66,15.18 105.09,15.18 
				105.09,12.48 111.46,12.48 111.46,15.18 109.89,15.18 109.89,23.89 111.5,23.89 			"/>
		</g>
		<g>
			<polygon class="st0" points="131.91,15.18 130.39,15.18 130.39,26.59 126.32,26.59 122.59,20.28 120.82,16.81 120.82,23.89 
				122.37,23.89 122.37,26.59 116.26,26.59 116.26,23.89 117.83,23.89 117.83,15.18 116.26,15.18 116.26,12.48 121.84,12.48 
				125.88,19.47 127.35,22.38 127.35,15.18 125.78,15.18 125.78,12.48 131.91,12.48 131.91,15.18 			"/>
		</g>
		<g>
			<path class="st0" d="M147.23,22.56c0,2.62-2.08,4.29-5.52,4.29c-1.71,0-3.73-0.4-5.46-1.25v-3.71h3.25v1.92
				c0.67,0.28,1.47,0.44,2.26,0.44c1.37,0,2.22-0.5,2.22-1.43c0-2.76-7.62-1.47-7.62-6.49c0-2.76,2.3-4.15,5.18-4.15
				c1.73,0,3.59,0.5,5.2,1.33v3.55h-3.21v-1.87c-0.61-0.26-1.35-0.42-1.98-0.42c-1.27,0-1.95,0.65-1.95,1.41
				C139.59,18.71,147.23,17.5,147.23,22.56L147.23,22.56L147.23,22.56z"/>
		</g>
		<g>
			<polygon class="st0" points="162.96,21.34 162.96,26.59 151.57,26.59 151.57,23.89 153.14,23.89 153.14,15.18 151.57,15.18 
				151.57,12.47 158.48,12.47 158.48,15.17 156.37,15.18 156.37,23.89 159.89,23.89 159.89,21.34 162.96,21.34 			"/>
		</g>
		<g>
			<path class="st0" d="M180.78,19.49c0,4.5-2.58,7.36-6.71,7.36c-4.09,0-6.67-2.86-6.67-7.36c0-4.52,2.58-7.34,6.67-7.34
				C178.2,12.15,180.78,14.97,180.78,19.49L180.78,19.49L180.78,19.49z M170.78,19.49c0,2.8,1.27,4.56,3.29,4.56
				c2.06,0,3.33-1.75,3.33-4.56c0-2.8-1.29-4.54-3.33-4.54C172.05,14.95,170.78,16.71,170.78,19.49L170.78,19.49L170.78,19.49z"/>
		</g>
		<g>
			<polygon class="st0" points="205.54,15.17 204.13,15.17 201.11,26.58 197.18,26.58 194.86,16.46 192.52,26.58 188.59,26.58 
				185.56,15.17 184.13,15.17 184.13,12.47 190.3,12.47 190.3,15.17 188.63,15.17 190.52,23.76 193.1,12.47 196.57,12.47 
				199.13,23.76 201.03,15.17 199.39,15.17 199.39,12.47 205.54,12.47 205.54,15.17 			"/>
		</g>
	</g>
	<g>
		<rect x="63.55" class="st0" width="1" height="39"/>
	</g>
	<g>
		<g>
			<path class="st0" d="M51.17,2c-0.11,0.26-0.41,0.52-0.57,0.76c-0.53,0.83-0.85,1.78-0.93,2.76c-0.09,1,0.05,2.02,0.27,2.99
				c0.23,0.99,0.57,1.96,0.59,2.98c0.05,1.81-0.71,3.54-2.07,4.73c-1.93,1.69-4.52,2.18-7.06,2.15h-1.15l-4.76,17.97H29.3l-3.7-15.9
				l-3.69,15.91h-6.19l-4.76-17.97H9.8c-2.54,0.03-5.13-0.46-7.06-2.15c-1.36-1.19-2.12-2.92-2.07-4.73
				c0.02-1.02,0.37-1.99,0.59-2.98c0.22-0.97,0.36-1.99,0.27-2.99C1.45,4.54,1.14,3.59,0.6,2.76C0.45,2.52,0.14,2.26,0.03,2
				c-0.17-0.41,0.35-0.22,0.55-0.13c1.55,0.64,2.65,1.91,3.25,3.47c0.32,0.84,0.5,1.73,0.56,2.63C4.46,8.99,4.26,9.99,4.3,11
				c0.06,1.84,1.64,2.6,3.25,2.87c1.1,0.19,2.23,0.24,3.34,0.26h9.5l-0.97,4.25h-3.63l2.98,13.53l4.06-17.78h5.53l4.06,17.78
				l2.98-13.53h-3.63l-0.97-4.25h9.5c1.11-0.02,2.24-0.07,3.34-0.26c1.61-0.27,3.19-1.03,3.25-2.87c0.03-1.01-0.17-2.01-0.1-3.03
				c0.06-0.89,0.24-1.79,0.56-2.63c0.6-1.56,1.7-2.83,3.25-3.47C50.82,1.79,51.33,1.59,51.17,2L51.17,2L51.17,2z"/>
		</g>
	</g>
</g>
</svg>
